<?xml version="1.0"?>
<svg xmlns="http://www.w3.org/2000/svg" id="Layer_1" data-name="Layer 1" viewBox="0 0 512 512" width="512" height="512"><title>Paycheck </title><path d="M111.354,340.451a6,6,0,0,1,8.485-.064,6.075,6.075,0,0,1,.095,8.547L34.707,436.229A34.048,34.048,0,0,0,56,444H336a34.045,34.045,0,0,0,21.253-7.739l-85.7-87.441a6,6,0,1,1,8.558-8.411l85.054,86.537A33.792,33.792,0,0,0,370,409.5V308.354a125.23,125.23,0,0,1-65.139-21.916l-81.647,69.246a41.866,41.866,0,0,1-54.307.022L22,231.313V409.5a33.842,33.842,0,0,0,4.8,17.414Z"/><path d="M376,68.5a114,114,0,1,0,114,114A114.129,114.129,0,0,0,376,68.5Zm22.357,82.091,16.622.212a6.1,6.1,0,0,1-.063,12.2h-.066l-16.621-.311a39.332,39.332,0,0,1-39.295,32.843l-7.187-.079,44.247,42.717a5.989,5.989,0,1,1-8.335,8.6l-55.1-53.234A6.162,6.162,0,0,1,336.727,183h.065l22.27.386c.1,0,.2.149.3.149a27.435,27.435,0,0,0,26.654-21.108l-48.994-.526a6,6,0,1,1,.129-12l48.993.525a27.436,27.436,0,0,0-26.493-21.68h0l-22.271-.24a6,6,0,0,1-5.935-6.067,6.068,6.068,0,0,1,6.175-5.94l22.381.228v-.021l55.448.552A5.872,5.872,0,1,1,415.274,129h-.066l-27.289-.1A39.853,39.853,0,0,1,398.357,150.591Z"/><path d="M215.452,346.515l79.628-67.551A124.879,124.879,0,0,1,250.13,188H56a34.076,34.076,0,0,0-33.455,28.01L176.662,346.539A29.9,29.9,0,0,0,215.452,346.515Z"/></svg>
