<?xml version="1.0"?>
<svg xmlns="http://www.w3.org/2000/svg" id="Layer_1" data-name="Layer 1" viewBox="0 0 512 512" width="512" height="512"><title>Rupees Coins</title><path d="M392,26a94,94,0,1,0,94,94A94.106,94.106,0,0,0,392,26Zm21.943,62.7,16.1.191A6.055,6.055,0,0,1,429.98,101h-.065l-16.1-.245a38.593,38.593,0,0,1-38.051,32.111l-.419,0-6.651-.071,42.922,41.439a6,6,0,1,1-8.334,8.633L349.5,130.947a6,6,0,0,1,4.231-10.317l21.736.232a26.635,26.635,0,0,0,26.121-20.315l-47.636-.516A6.016,6.016,0,0,1,354.02,88h.065l47.634.5a26.638,26.638,0,0,0-25.678-20.876l-21.735-.289a6.1,6.1,0,0,1-5.936-6.177,6.2,6.2,0,0,1,6-6.161h.066l21.735.425,54.224.774A5.9,5.9,0,1,1,430.33,68h-.065l-26.273-.14A38.682,38.682,0,0,1,413.943,88.7Z"/><path d="M129,276.775c60.715,0,103-19.821,103-37.61v-20.9c-6,5.124-13.816,9.754-23.68,13.7-21.283,8.514-49.427,13.2-79.295,13.2s-58.037-4.688-79.321-13.2c-9.863-3.945-17.821-8.575-23.7-13.7v20.9C26,256.954,68.285,276.775,129,276.775Z"/><path d="M129,233.165c60.715,0,103-19.821,103-37.61v-20.9c-6,5.123-13.816,9.753-23.68,13.7-21.283,8.513-49.427,13.2-79.295,13.2s-58.037-4.689-79.321-13.2c-9.863-3.946-17.821-8.575-23.7-13.7v20.9C26,213.344,68.285,233.165,129,233.165Z"/><path d="M129,189.555c60.715,0,103-19.822,103-37.611v-20.9c-6,5.123-13.816,9.753-23.68,13.7-21.283,8.514-49.427,13.2-79.295,13.2s-58.037-4.688-79.321-13.2c-9.863-3.945-17.821-8.575-23.7-13.7v20.9C26,169.733,68.285,189.555,129,189.555Z"/><ellipse cx="129.026" cy="108.334" rx="103.026" ry="37.61"/><path d="M49.7,362.793c-9.863-3.945-17.821-8.575-23.7-13.7V370c0,17.789,42.438,37.61,103.152,37.61a248.42,248.42,0,0,0,41.848-3.4V372.756A261.111,261.111,0,0,1,129.152,376C99.285,376,70.988,371.307,49.7,362.793Z"/><path d="M232,273.454V261.875c-6,5.123-13.816,9.753-23.68,13.7-21.283,8.514-49.427,13.2-79.295,13.2s-58.037-4.688-79.321-13.2c-9.863-3.945-17.821-8.575-23.7-13.7v20.9c0,17.789,42.3,37.61,103.019,37.61a248.119,248.119,0,0,0,41.73-3.4c.336-14.041,12.96-26.748,35.675-35.835A173.488,173.488,0,0,1,232,273.454Z"/><path d="M49.7,319.183c-9.863-3.945-17.821-8.575-23.7-13.7v20.9C26,344.174,68.438,364,129.152,364A248.331,248.331,0,0,0,171,360.6V329.146a261.111,261.111,0,0,1-41.848,3.239C99.285,332.385,70.988,327.7,49.7,319.183Z"/><path d="M285.835,410.779c-29.867,0-57.974-4.688-79.258-13.2C196.714,393.632,189,389,183,383.879v20.9c0,17.789,42.285,37.611,103,37.611s103-19.822,103-37.611v-20.9c-6,5.123-13.911,9.753-23.774,13.7C343.942,406.091,315.7,410.779,285.835,410.779Z"/><path d="M285.835,367.169c-29.867,0-57.974-4.689-79.258-13.2-9.863-3.946-17.577-8.575-23.577-13.7v20.9c0,17.789,42.285,37.61,103,37.61s103-19.821,103-37.61v-20.9c-6,5.124-13.911,9.753-23.774,13.7C343.942,362.48,315.7,367.169,285.835,367.169Z"/><ellipse cx="285.772" cy="317.559" rx="103.026" ry="37.61"/><path d="M285.835,454.39c-29.867,0-57.974-4.689-79.258-13.2-9.863-3.946-17.577-8.575-23.577-13.7v20.9C183,466.179,225.285,486,286,486s103-19.821,103-37.61v-20.9c-6,5.123-13.911,9.753-23.774,13.7C343.941,449.7,315.7,454.39,285.835,454.39Z"/></svg>
